<?xml version="1.0" standalone="no"?>
<!DOCTYPE svg PUBLIC "-//W3C//DTD SVG 20010904//EN"
 "http://www.w3.org/TR/2001/REC-SVG-20010904/DTD/svg10.dtd">
<svg version="1.0" xmlns="http://www.w3.org/2000/svg"
 width="960.000000pt" height="960.000000pt" viewBox="0 0 960.000000 960.000000"
 preserveAspectRatio="xMidYMid meet">
<metadata>
Created by potrace 1.11, written by Peter Selinger 2001-2013
</metadata>
<g transform="translate(0.000000,960.000000) scale(0.100000,-0.100000)"
fill="#000000" stroke="none">
<path d="M2630 8134 c-229 -48 -436 -167 -660 -382 -57 -53 -110 -99 -119
-102 -116 -39 -319 -200 -440 -350 -20 -25 -39 -47 -42 -50 -3 -3 -35 -48 -71
-100 -130 -190 -240 -413 -334 -679 -24 -67 -44 -124 -44 -126 0 -2 -8 -2 -17
-1 -10 2 -18 9 -18 17 0 9 -9 13 -25 11 -88 -11 -169 2 -192 31 -15 20 -18 20
-35 6 -12 -11 -26 -14 -43 -8 -14 4 -39 7 -57 8 -19 1 -40 10 -53 23 -19 21
-22 21 -48 6 -15 -8 -45 -19 -66 -22 -104 -19 -207 -100 -257 -201 -16 -33
-29 -68 -29 -78 0 -10 -3 -16 -8 -14 -4 3 -8 -9 -9 -26 -16 -239 -9 -315 36
-413 25 -54 98 -141 108 -130 8 8 68 -17 90 -37 18 -16 25 -17 37 -8 20 16
143 -13 173 -41 18 -17 25 -18 37 -9 11 9 29 8 82 -5 81 -21 102 -39 98 -85
-5 -64 -14 -164 -19 -204 -29 -255 -23 -805 11 -979 2 -11 6 -38 9 -61 11 -76
57 -250 91 -344 64 -177 142 -318 248 -451 29 -36 78 -117 108 -180 48 -99
147 -264 167 -280 4 -3 22 -25 41 -50 49 -65 163 -173 236 -225 193 -138 432
-204 615 -169 271 51 504 235 870 685 55 68 108 133 117 144 30 37 262 386
288 434 14 25 43 78 65 116 94 167 229 464 295 653 15 45 22 53 39 49 11 -3
191 -48 400 -101 209 -53 391 -98 405 -100 34 -7 146 -33 195 -46 22 -6 49
-13 60 -15 11 -2 58 -13 105 -25 47 -11 98 -23 113 -27 27 -6 28 -8 26 -62 -2
-31 -7 -61 -12 -68 -4 -6 -3 -14 3 -18 6 -3 7 -12 3 -18 -4 -6 -8 -37 -9 -67
-1 -30 -5 -125 -9 -210 -12 -256 -8 -526 10 -700 2 -19 6 -60 9 -90 3 -30 8
-64 10 -75 2 -11 7 -40 11 -65 9 -52 8 -50 30 -155 86 -408 334 -839 596
-1030 107 -79 246 -146 352 -171 9 -2 27 -7 40 -10 12 -3 65 -7 118 -10 226
-9 441 99 692 348 53 53 107 100 120 104 38 11 120 55 167 88 25 17 75 44 111
59 37 16 76 37 87 48 12 10 25 19 30 19 5 0 40 32 78 71 95 98 94 96 94 107 0
6 4 12 8 14 21 8 165 230 236 363 15 28 31 57 36 65 17 27 86 184 130 292 38
92 49 112 82 133 21 14 38 32 38 40 0 8 4 15 8 15 8 0 32 66 37 100 1 8 5 26
9 40 6 23 13 64 15 82 2 14 51 -15 56 -33 8 -26 36 -33 42 -10 4 18 7 18 90
-3 68 -17 88 -27 96 -44 11 -25 54 -27 49 -3 -2 9 3 11 15 6 18 -7 70 -21 126
-32 15 -3 27 -9 27 -13 0 -5 7 -16 16 -25 15 -15 18 -15 35 1 10 9 23 13 28 9
6 -3 19 -8 29 -10 62 -12 107 -29 122 -48 15 -18 20 -19 34 -8 13 11 24 12 56
2 21 -6 58 -14 82 -17 24 -4 45 -8 47 -10 8 -7 78 29 104 54 82 77 168 267
192 424 3 18 8 85 10 149 4 93 1 129 -14 183 -31 113 -53 132 -193 167 -52 13
-88 27 -88 34 0 19 -27 26 -40 10 -9 -11 -21 -10 -73 6 -34 10 -70 19 -79 19
-10 0 -18 6 -18 14 0 18 -20 26 -41 15 -19 -10 -168 28 -191 48 -10 9 -25 13
-33 9 -21 -8 -175 31 -196 50 -8 8 -20 14 -25 14 -5 0 -11 10 -11 22 -1 13 -7
24 -13 26 -5 2 -10 8 -10 13 0 5 -12 22 -27 38 -28 29 -28 31 -29 173 -2 177
-14 374 -29 475 -3 18 -8 57 -11 85 -9 72 -47 253 -78 370 -54 203 -149 421
-248 568 -28 41 -66 111 -85 155 -119 280 -280 508 -458 650 -27 22 -51 43
-53 48 -2 4 -9 7 -15 7 -6 0 -18 6 -26 14 -17 14 -91 53 -151 80 -61 27 -198
57 -278 59 -285 10 -576 -124 -850 -391 -68 -66 -188 -201 -227 -256 -11 -16
-37 -50 -57 -77 -21 -27 -38 -53 -38 -59 0 -5 -4 -10 -10 -10 -5 0 -10 -5 -10
-10 0 -18 -52 -90 -61 -84 -5 3 -6 -2 -3 -10 3 -8 -4 -29 -15 -45 -12 -16 -21
-34 -21 -40 0 -6 -4 -11 -9 -11 -5 0 -12 -11 -15 -25 -4 -14 -11 -25 -17 -25
-6 0 -8 -4 -4 -9 3 -6 -4 -15 -15 -21 -11 -6 -18 -15 -15 -20 9 -14 -6 -40
-24 -40 -12 0 -13 -2 -3 -8 13 -9 6 -42 -9 -42 -5 0 -9 -9 -9 -19 0 -11 -8
-27 -17 -37 -10 -9 -18 -22 -19 -28 0 -6 -2 -17 -2 -24 -1 -7 -6 -11 -11 -8
-5 4 -7 -2 -4 -12 2 -11 -1 -25 -9 -33 -7 -8 -15 -23 -16 -34 -2 -11 -13 -37
-23 -58 -11 -21 -17 -41 -15 -46 3 -4 -3 -17 -13 -27 -9 -11 -15 -26 -13 -33
3 -8 0 -11 -6 -7 -6 4 -8 -2 -4 -16 3 -12 1 -19 -4 -15 -5 3 -10 -2 -11 -11
-4 -43 -12 -75 -20 -81 -8 -6 -11 -16 -20 -61 -2 -14 -9 -29 -15 -35 -8 -7 -9
-6 -3 4 6 10 4 12 -4 7 -9 -6 -9 -11 0 -22 8 -10 8 -14 1 -14 -6 0 -9 -7 -6
-15 4 -8 1 -15 -4 -15 -6 0 -9 -9 -7 -20 2 -11 -1 -20 -6 -20 -6 0 -7 -4 -4
-10 8 -13 -2 -13 -45 1 -19 5 -42 12 -50 14 -33 9 -166 46 -180 50 -36 10
-204 57 -310 85 -63 17 -140 38 -170 46 -30 9 -62 17 -70 19 -8 2 -15 4 -15 5
0 1 -11 4 -25 6 -14 3 -127 30 -252 62 l-227 57 -5 265 c-3 146 -8 279 -10
295 -3 17 -8 57 -11 90 -3 33 -10 96 -16 140 -6 44 -12 91 -14 105 -6 39 -15
94 -20 110 -2 8 -7 31 -10 50 -3 19 -10 51 -15 70 -5 19 -12 50 -15 69 -3 19
-8 38 -11 43 -3 5 -8 20 -10 34 -12 63 -95 302 -141 404 -23 51 -73 153 -83
170 -5 8 -28 47 -51 85 -216 363 -531 572 -863 573 -56 0 -130 -6 -166 -14z"/>
</g>
</svg>
